<svg width="86" height="86" viewBox="0 0 86 86" fill="none" xmlns="http://www.w3.org/2000/svg">
<circle cx="43" cy="43" r="43" fill="#213C33"/>
<g clip-path="url(#clip0_118_222)">
<path fill-rule="evenodd" clip-rule="evenodd" d="M40.6802 47.3694C36.7779 46.3598 32.596 43.1136 31.6211 42.9589C31.7175 43.6013 32.4982 45.0858 32.8424 45.6597C34.423 48.2949 37.4007 49.4924 40.5087 49.9569C42.9526 50.3219 45.1114 50.0514 47.5393 49.5051C48.8995 49.1993 52.3519 48.1253 53.5351 47.6246C52.8541 47.2311 43.9573 48.2172 40.6802 47.3694Z" fill="#FEFEFE"/>
<path fill-rule="evenodd" clip-rule="evenodd" d="M38.2393 51.2962C37.42 50.8524 35.2815 49.539 34.5193 49.3242C34.6097 49.8637 35.3163 51.1567 35.6369 51.6218C37.2085 53.903 39.2018 54.5245 42.1714 55.0886C44.0895 55.4529 46.3582 55.1484 48.2438 54.7279C49.1449 54.5271 49.9705 54.2973 50.854 54.0329C51.3506 53.8842 52.9167 53.4534 53.2927 53.1515C49.8366 53.1701 45.4357 53.5611 42.232 52.96C41.0173 52.7321 39.2747 51.8571 38.2393 51.2962Z" fill="#FEFEFE"/>
<path fill-rule="evenodd" clip-rule="evenodd" d="M36.8513 54.9082C37.0877 56.1769 38.4224 57.7961 39.2817 58.3517C42.1298 60.1929 45.7085 60.2054 48.9396 59.5592C50.0856 59.3301 52.8464 58.5095 53.3335 58.2626L53.4508 58.1961C50.2703 58.1318 46.7774 58.6226 43.7865 58.012C40.9422 57.4313 37.666 55.0232 36.8513 54.9082Z" fill="#FEFEFE"/>
<path fill-rule="evenodd" clip-rule="evenodd" d="M39.0674 60.2958C39.4322 61.0062 39.4956 61.2634 39.9636 61.8426C41.1631 63.3273 43.1265 63.7436 44.9871 63.9529C46.4043 64.1124 47.9038 63.949 49.3152 63.68C49.9059 63.5673 52.5527 62.9318 52.9663 62.7291C52.3482 62.4831 46.588 62.9789 45.0145 62.6269C43.7103 62.3351 43.0473 62.0805 41.9269 61.5685C41.3524 61.3059 39.5493 60.3442 39.0674 60.2958Z" fill="#FEFEFE"/>
<path fill-rule="evenodd" clip-rule="evenodd" d="M28.1689 19.9485C27.9056 20.0045 27.7394 20.1024 27.4969 20.2704C27.2543 20.4385 26.9356 20.6764 26.4921 21.1872C26.0488 21.6981 25.4805 22.482 25.0164 23.2519C24.5521 24.0217 24.1917 24.7776 23.9147 25.5754C23.6374 26.3733 23.4435 27.2131 23.3021 28.011C23.1608 28.8088 23.0722 29.5647 23.0279 30.3555C22.9836 31.1463 22.9836 31.9722 23.0902 32.84C23.1969 33.7078 23.4103 34.6177 23.7803 35.7444C24.1502 36.8712 24.6768 38.2149 25.3351 39.5447C25.9933 40.8744 26.7831 42.1902 27.6285 43.471C28.4738 44.7516 29.3746 45.9974 30.1714 47.0403C30.9682 48.083 31.6611 48.9229 32.0075 49.3288C32.354 49.7347 32.354 49.7067 32.257 49.5038C32.16 49.3008 31.966 48.9229 31.571 48.118C31.1761 47.3132 30.5803 46.0814 30.0883 44.9546C29.5963 43.8279 29.2082 42.8061 28.8203 41.7702C28.4322 40.7344 28.0442 39.6847 27.7602 38.5439C27.4761 37.4031 27.2959 36.1713 27.1989 35.1111C27.1019 34.0507 27.088 33.1619 27.1504 32.3816C27.2128 31.6012 27.3513 30.9294 27.5938 30.2225C27.8363 29.5157 28.1828 28.7738 28.6367 28.1019C29.0905 27.4301 29.6517 26.8282 30.2268 26.3383C30.8019 25.8484 31.391 25.4704 31.8273 25.2499C32.2639 25.0295 32.548 24.9666 32.7836 24.9315C33.0192 24.8965 33.2062 24.8895 33.4211 24.949C33.6358 25.0085 33.8784 25.1345 34.2491 25.3129C34.6197 25.4915 35.1186 25.7223 35.9709 26.0514C36.8231 26.3803 38.0288 26.8072 39.0231 27.1046C40.0173 27.4021 40.8003 27.57 41.4759 27.6855C42.1514 27.8009 42.7196 27.8639 43.2566 27.9025C43.7936 27.941 44.2993 27.955 44.826 27.9025C45.3526 27.85 45.8999 27.731 46.4439 27.57C46.9879 27.4091 47.5282 27.2061 47.7881 27.0942C48.0479 26.9822 48.0271 26.9612 47.8955 26.9787C47.7638 26.9961 47.5214 27.0521 47.019 27.0836C46.5167 27.1152 45.7545 27.1222 44.923 27.0591C44.0915 26.9961 43.1908 26.8632 42.2104 26.6112C41.2299 26.3593 40.1698 25.9883 38.9953 25.4915C37.8209 24.9945 36.5321 24.3716 35.4582 23.7943C34.3841 23.2169 33.525 22.685 32.6762 22.1356C31.8273 21.5862 30.989 21.0193 30.5039 20.6764C30.019 20.3335 29.8873 20.2145 29.721 20.1165C29.5548 20.0185 29.3538 19.9415 29.0731 19.91C28.7926 19.8786 28.4322 19.8926 28.1689 19.9485Z" fill="#FEFEFE"/>
<path fill-rule="evenodd" clip-rule="evenodd" d="M55.0166 18.8373C54.0604 18.5154 53.2567 18.4033 52.6713 18.3439C52.0858 18.2844 51.7184 18.2774 51.1018 18.2914C50.4852 18.3054 49.619 18.3404 48.5762 18.4558C47.5335 18.5713 46.314 18.7673 45.0252 19.0612C43.7364 19.3552 42.3783 19.7471 41.4395 20.0481C40.5006 20.349 39.9809 20.5589 39.2776 20.8879C38.5744 21.2168 37.6875 21.6648 37.0362 22.0252C36.3848 22.3856 35.9691 22.6585 35.7717 22.802C35.5741 22.9454 35.595 22.9594 35.7335 22.9C35.8721 22.8405 36.1285 22.7075 36.506 22.522C36.8837 22.3366 37.3826 22.0986 38.0409 21.8397C38.6991 21.5807 39.5166 21.3008 40.3204 21.0594C41.1242 20.8179 41.9141 20.615 42.7144 20.4505C43.5146 20.2859 44.3253 20.16 45.3682 20.0901C46.4109 20.02 47.6859 20.006 48.5936 20.0341C49.5012 20.0621 50.0417 20.132 50.6584 20.237C51.2751 20.342 51.9679 20.4819 52.64 20.6919C53.3121 20.9019 53.9635 21.1818 54.5767 21.5807C55.1899 21.9797 55.765 22.4976 56.3019 23.0365C56.8389 23.5754 57.3379 24.1353 57.809 24.7826C58.2801 25.4301 58.7236 26.1648 59.0284 26.7422C59.3333 27.3196 59.4997 27.7395 59.6556 28.1945C59.8115 28.6494 59.957 29.1393 60.0886 29.6536C60.2202 30.168 60.338 30.707 60.3934 31.4663C60.449 32.2256 60.4419 33.2055 60.3658 34.0663C60.2896 34.9271 60.144 35.669 60.0158 36.2778C59.8876 36.8868 59.7768 37.3627 59.5065 38.08C59.2363 38.7974 58.8067 39.7562 58.3772 40.5855C57.9476 41.4148 57.518 42.1147 57.1646 42.6991C56.8113 43.2836 56.5341 43.7524 56.3435 44.0499C56.153 44.3473 56.0491 44.4733 55.9971 44.5678C55.9451 44.6623 55.945 44.7253 56.1496 44.4803C56.3539 44.2353 56.7627 43.6824 57.2651 42.9826C57.7674 42.2827 58.3633 41.4359 58.9488 40.554C59.5343 39.6722 60.1094 38.7554 60.5701 37.947C61.031 37.1387 61.3774 36.4388 61.665 35.725C61.9524 35.0112 62.1812 34.2833 62.3813 33.5764C62.5814 32.8696 62.753 32.1837 62.8388 31.4278C62.9246 30.6719 62.9246 29.8461 62.8734 29.1533C62.8222 28.4604 62.72 27.9005 62.5025 27.1482C62.285 26.3957 61.9524 25.451 61.4882 24.5341C61.024 23.6174 60.4281 22.7286 59.8565 22.0147C59.2848 21.3008 58.7374 20.7619 57.9094 20.2265C57.0815 19.6911 55.9729 19.1592 55.0166 18.8373Z" fill="#FEFEFE"/>
<path fill-rule="evenodd" clip-rule="evenodd" d="M44.3167 67.5482C44.1159 67.466 43.9357 67.3749 43.7278 67.242C43.5199 67.109 43.2844 66.9341 43.1129 66.8011C42.9414 66.6682 42.834 66.5771 42.711 66.4651C42.588 66.3531 42.4495 66.2202 42.3645 66.1572C42.2797 66.0942 42.2485 66.1012 42.2762 66.2166C42.3039 66.3322 42.3905 66.5561 42.576 66.8449C42.7613 67.1335 43.0453 67.487 43.3346 67.7407C43.6239 67.9944 43.9183 68.1483 44.3895 68.297C44.8607 68.4457 45.5085 68.5892 46.0992 68.6593C46.6899 68.7292 47.2235 68.7257 47.6912 68.689C48.1588 68.6522 48.5607 68.5822 48.8691 68.493C49.1773 68.4037 49.3921 68.2953 49.6555 68.1448C49.9188 67.9944 50.2306 67.8019 50.5268 67.5587C50.823 67.3155 51.1037 67.0215 51.3323 66.7119C51.5609 66.4022 51.7376 66.0768 51.8173 65.872C51.897 65.6673 51.8796 65.5832 51.845 65.5605C51.8104 65.5378 51.7584 65.5764 51.6389 65.704C51.5194 65.8318 51.3322 66.0487 51.069 66.2867C50.8057 66.5247 50.4662 66.7836 50.1215 66.9954C49.7767 67.207 49.4268 67.3715 49.0682 67.508C48.7097 67.6444 48.3425 67.7529 48.0704 67.8176C47.7985 67.8824 47.6219 67.9034 47.2442 67.9121C46.8666 67.9208 46.288 67.9174 45.8741 67.8928C45.4601 67.8684 45.2106 67.8229 44.975 67.7634C44.7394 67.7039 44.5177 67.6305 44.3167 67.5482Z" fill="#FEFEFE"/>
</g>
<defs>
<clipPath id="clip0_118_222">
<rect width="40" height="51" fill="white" transform="translate(23 18)"/>
</clipPath>
</defs>
</svg>
